<mxfile host="app.diagrams.net" modified="2024-06-22T19:17:08.959Z" agent="Mozilla/5.0 (Windows NT 10.0; Win64; x64) AppleWebKit/537.36 (KHTML, like Gecko) Chrome/126.0.0.0 Safari/537.36" etag="44Py9L4tshaBKW8sAqCk" version="24.6.2" type="github">
  <diagram name="PÃ¡gina-1" id="UF9e8RY7PJwzKPHXZi5P">
    <mxGraphModel dx="603" dy="323" grid="1" gridSize="10" guides="1" tooltips="1" connect="1" arrows="1" fold="1" page="1" pageScale="1" pageWidth="827" pageHeight="1169" math="0" shadow="0">
      <root>
        <mxCell id="0" />
        <mxCell id="1" parent="0" />
        <mxCell id="CYJbvQpdtOtfQs4ItMTN-1" value="" style="image;html=1;image=img/lib/clip_art/computers/Database_128x128.png" vertex="1" parent="1">
          <mxGeometry x="450" y="440" width="80" height="80" as="geometry" />
        </mxCell>
        <mxCell id="CYJbvQpdtOtfQs4ItMTN-7" style="edgeStyle=orthogonalEdgeStyle;rounded=1;orthogonalLoop=1;jettySize=auto;html=1;exitX=0.5;exitY=0;exitDx=0;exitDy=0;entryX=0;entryY=0.5;entryDx=0;entryDy=0;curved=0;" edge="1" parent="1" source="CYJbvQpdtOtfQs4ItMTN-4" target="CYJbvQpdtOtfQs4ItMTN-6">
          <mxGeometry relative="1" as="geometry" />
        </mxCell>
        <mxCell id="CYJbvQpdtOtfQs4ItMTN-4" value="" style="image;html=1;image=img/lib/clip_art/telecommunication/iPhone_128x128.png" vertex="1" parent="1">
          <mxGeometry x="240" y="730" width="80" height="80" as="geometry" />
        </mxCell>
        <mxCell id="CYJbvQpdtOtfQs4ItMTN-8" style="edgeStyle=orthogonalEdgeStyle;rounded=1;orthogonalLoop=1;jettySize=auto;html=1;exitX=0.5;exitY=0;exitDx=0;exitDy=0;entryX=0.5;entryY=1;entryDx=0;entryDy=0;curved=0;" edge="1" parent="1" source="CYJbvQpdtOtfQs4ItMTN-6" target="CYJbvQpdtOtfQs4ItMTN-1">
          <mxGeometry relative="1" as="geometry" />
        </mxCell>
        <mxCell id="CYJbvQpdtOtfQs4ItMTN-10" style="edgeStyle=orthogonalEdgeStyle;rounded=1;orthogonalLoop=1;jettySize=auto;html=1;exitX=1;exitY=0.5;exitDx=0;exitDy=0;shadow=1;strokeColor=default;curved=0;startArrow=classic;startFill=1;endArrow=none;endFill=0;" edge="1" parent="1" source="CYJbvQpdtOtfQs4ItMTN-6" target="CYJbvQpdtOtfQs4ItMTN-9">
          <mxGeometry relative="1" as="geometry" />
        </mxCell>
        <mxCell id="CYJbvQpdtOtfQs4ItMTN-6" value="" style="image;html=1;image=img/lib/clip_art/networking/Print_Server_Wireless_128x128.png" vertex="1" parent="1">
          <mxGeometry x="414" y="585" width="80" height="80" as="geometry" />
        </mxCell>
        <mxCell id="CYJbvQpdtOtfQs4ItMTN-9" value="" style="image;html=1;image=img/lib/clip_art/computers/Harddrive_128x128.png" vertex="1" parent="1">
          <mxGeometry x="520" y="740" width="80" height="80" as="geometry" />
        </mxCell>
        <mxCell id="CYJbvQpdtOtfQs4ItMTN-11" value="Luz" style="text;html=1;align=center;verticalAlign=middle;resizable=0;points=[];autosize=1;strokeColor=none;fillColor=none;" vertex="1" parent="1">
          <mxGeometry x="550" y="810" width="40" height="30" as="geometry" />
        </mxCell>
        <mxCell id="CYJbvQpdtOtfQs4ItMTN-12" value="" style="html=1;verticalLabelPosition=bottom;align=center;labelBackgroundColor=#ffffff;verticalAlign=top;strokeWidth=2;strokeColor=#0080F0;shadow=0;dashed=0;shape=mxgraph.ios7.icons.wifi;pointerEvents=1" vertex="1" parent="1">
          <mxGeometry x="240" y="700" width="29.7" height="21" as="geometry" />
        </mxCell>
        <mxCell id="CYJbvQpdtOtfQs4ItMTN-13" value="" style="html=1;verticalLabelPosition=bottom;align=center;labelBackgroundColor=#ffffff;verticalAlign=top;strokeWidth=2;strokeColor=#0080F0;shadow=0;dashed=0;shape=mxgraph.ios7.icons.wifi;pointerEvents=1" vertex="1" parent="1">
          <mxGeometry x="520" y="730" width="29.7" height="21" as="geometry" />
        </mxCell>
      </root>
    </mxGraphModel>
  </diagram>
</mxfile>
